<svg xmlns="http://www.w3.org/2000/svg" viewBox="0 0 1000 1000"><defs><style>.cls-2{fill:#00c900}.cls-3{fill:#df358d;opacity:.31}.cls-3,.cls-7{mix-blend-mode:multiply}.cls-13,.cls-4,.cls-8,.cls-9{fill:none;stroke-linejoin:round}.cls-13,.cls-4,.cls-9{stroke:#2a2a2a}.cls-13,.cls-4,.cls-8,.cls-9{stroke-linecap:round}.cls-4{stroke-width:10px}.cls-6,.cls-7{fill:#f9a991}.cls-7{opacity:.26}.cls-8{stroke:#fff}.cls-8,.cls-9{stroke-width:8px}.cls-10{fill:#2a2a2a}.cls-13{stroke-width:6px}</style></defs><g style="isolation:isolate"><g id="Layer_1" data-name="Layer 1"><g id="_Группа_" data-name="&lt;Группа&gt;"><g id="_Группа_2" data-name="&lt;Группа&gt;"><ellipse id="_Контур_" data-name="&lt;Контур&gt;" class="cls-2" cx="500" cy="551.58" rx="95.34" ry="46.56"/><path id="_Контур_2" data-name="&lt;Контур&gt;" class="cls-3" d="M561.83 531.32c0 18-27.92 32.64-62.36 32.64s-62.36-14.61-62.36-32.64"/><path id="_Контур_3" data-name="&lt;Контур&gt;" class="cls-3" d="M500 528.93a119.26 119.26 0 0 0 55-13.37c-15.54-5.37-34.52-8.53-55-8.53s-39.47 3.16-55 8.53a119.26 119.26 0 0 0 55 13.37z"/><ellipse id="_Контур_4" data-name="&lt;Контур&gt;" class="cls-4" cx="500" cy="551.58" rx="95.34" ry="46.56"/><path id="_Контур_5" data-name="&lt;Контур&gt;" class="cls-2" d="M639.7 687.94H360.3V627.2a66.72 66.72 0 0 1 45.36-63.2l12.63-4.27a255.28 255.28 0 0 1 163.41 0l12.64 4.27a66.72 66.72 0 0 1 45.36 63.2z"/><path id="_Контур_6" data-name="&lt;Контур&gt;" class="cls-3" d="M594.34 564l-12.63-4.27a255.28 255.28 0 0 0-163.41 0L405.66 564a66.72 66.72 0 0 0-45.36 63.2v10.72a66.72 66.72 0 0 1 45.37-63.21l12.63-4.27a255.28 255.28 0 0 1 163.41 0l12.63 4.27a66.72 66.72 0 0 1 45.37 63.21V627.2a66.72 66.72 0 0 0-45.37-63.2z"/><path id="_Контур_7" data-name="&lt;Контур&gt;" class="cls-4" d="M639.7 687.94H360.3V627.2a66.72 66.72 0 0 1 45.36-63.2l12.63-4.27a255.28 255.28 0 0 1 163.41 0l12.64 4.27a66.72 66.72 0 0 1 45.36 63.2z"/><path id="_Контур_8" data-name="&lt;Контур&gt;" d="M452.06 557.16v21.08c0 16 13.94 28.89 31.14 28.89h33.6c17.2 0 31.14-12.94 31.14-28.89v-21.08" style="mix-blend-mode:multiply" stroke="#df358d" stroke-miterlimit="10" stroke-width="10" stroke-linecap="round" fill="#df358d" opacity=".31"/><g id="_Группа_3" data-name="&lt;Группа&gt;"><path id="_Контур_9" data-name="&lt;Контур&gt;" class="cls-2" d="M441.32 529.77s10.21 7.46 10.21 18.39v21.08c0 16 13.94 28.89 31.14 28.89h33.59c17.2 0 31.14-12.94 31.14-28.89v-21.08c0-10.92 10.21-18.39 10.21-18.39z"/><path id="_Контур_10" data-name="&lt;Контур&gt;" class="cls-4" d="M441.85 529.77s10.21 7.46 10.21 18.39v21.08c0 16 13.94 28.89 31.14 28.89h33.6c17.2 0 31.14-12.94 31.14-28.89v-21.08c0-10.92 10.21-18.39 10.21-18.39"/></g><path id="_Прямоугольник_" data-name="&lt;Прямоугольник&gt;" class="cls-6" d="M476 496.48h48v53.44a24 24 0 0 1-24 24 24 24 0 0 1-24-24v-53.44z"/><path id="_Контур_11" data-name="&lt;Контур&gt;" class="cls-7" d="M476 526.52a120.57 120.57 0 0 0 48 0v-28h-48z"/><path id="_Прямоугольник_2" data-name="&lt;Прямоугольник&gt;" class="cls-4" d="M476 496.48h48v53.44a24 24 0 0 1-24 24 24 24 0 0 1-24-24v-53.44z"/><g id="_Группа_4" data-name="&lt;Группа&gt;"><path id="_Контур_12" data-name="&lt;Контур&gt;" class="cls-8" d="M470.5 580.18v40.64"/><path id="_Контур_13" data-name="&lt;Контур&gt;" class="cls-8" d="M529.5 580.18v57.74"/></g><path id="_Контур_14" data-name="&lt;Контур&gt;" class="cls-4" d="M500 602.03v85.91"/></g><g id="_Группа_5" data-name="&lt;Группа&gt;"><g id="_Группа_6" data-name="&lt;Группа&gt;"><g id="_Группа_7" data-name="&lt;Группа&gt;"><path id="_Прямоугольник_3" data-name="&lt;Прямоугольник&gt;" class="cls-6" d="M390 295.28h220v111.65a110 110 0 0 1-110 110 110 110 0 0 1-110-110V295.28z"/><path id="_Контур_15" data-name="&lt;Контур&gt;" class="cls-7" d="M610 391.8v-96.52H390v96.52l.4-41.17c1.69-6 24.22-22.5 38.8-29.31 18.65 11.24 39.65 16.93 62.52 16.93 26 0 49.5-7.45 64.58-15.11 7.37 6.95 25.78 20.41 50.67 22.56z"/><path id="_Контур_16" data-name="&lt;Контур&gt;" class="cls-7" d="M500 502.79a110 110 0 0 1-110-110v14.14a110 110 0 0 0 110 110 110 110 0 0 0 110-110v-14.14a110 110 0 0 1-110 110z"/><path id="_Контур_17" data-name="&lt;Контур&gt;" class="cls-7" d="M516.46 414.46c0 4.28-5.44 7.74-16.46 7.74s-16.46-3.47-16.46-7.74c0 0 11.81 1.85 15.93 1.85s16.99-1.85 16.99-1.85z"/><path id="_Контур_18" data-name="&lt;Контур&gt;" class="cls-9" d="M516.46 416.46c0 4.28-5.44 7.74-16.46 7.74s-16.46-3.47-16.46-7.74"/><path id="_Прямоугольник_4" data-name="&lt;Прямоугольник&gt;" class="cls-4" d="M390 295.28h220v111.65a110 110 0 0 1-110 110 110 110 0 0 1-110-110V295.28z"/><g id="_Группа_8" data-name="&lt;Группа&gt;"><g id="_Группа_9" data-name="&lt;Группа&gt;"><path id="_Контур_19" data-name="&lt;Контур&gt;" class="cls-9" d="M458.06 364.49a47.47 47.47 0 0 0-32.43 5.05"/><circle id="_Контур_20" data-name="&lt;Контур&gt;" class="cls-10" cx="451.1" cy="387.97" r="9" transform="rotate(-8.86 450.925 387.874)"/></g><g id="_Группа_10" data-name="&lt;Группа&gt;"><path id="_Контур_21" data-name="&lt;Контур&gt;" class="cls-9" d="M541.94 364.49a47.47 47.47 0 0 1 32.43 5.05"/><circle id="_Контур_22" data-name="&lt;Контур&gt;" class="cls-10" cx="548.9" cy="387.97" r="9" transform="rotate(-81.14 548.93 387.964)"/></g></g><g id="_Группа_11" data-name="&lt;Группа&gt;"><path id="_Контур_23" data-name="&lt;Контур&gt;" d="M529.5 445c0 15.08-13.21 27.3-29.5 27.3s-29.5-12.2-29.5-27.3z" fill="#fff"/><path id="_Контур_24" data-name="&lt;Контур&gt;" class="cls-9" d="M529.5 445c0 15.08-13.21 27.3-29.5 27.3s-29.5-12.2-29.5-27.3z"/><path id="_Контур_25" data-name="&lt;Контур&gt;" class="cls-9" d="M492.76 487.47h14.48"/></g></g><g id="_Группа_12" data-name="&lt;Группа&gt;"><path id="_Контур_26" data-name="&lt;Контур&gt;" class="cls-10" d="M375.17 299.28v78.52H390v-37.11c0-9.07 39-35.39 39-35.39 50.65 34.65 109.87 13.5 129.15 1.33 0 0 16.21 20.28 51.85 32.5v38.67h14.83v-78.52c0-24.21-14.64-54.68-47.68-59.68-8.45-25-40.05-33-57.58-30.69-45.84 6-61.5 9.32-93.93-6.27-6.63 17.22 0 28.55 0 28.55-13.64 2.43-15.33 4.43-35.6-.14 0 8.24.44 20.45 4 25.21-17.56 10.16-18.87 23.91-18.87 43.02z"/></g><g id="_Группа_13" data-name="&lt;Группа&gt;"><path id="_Контур_27" data-name="&lt;Контур&gt;" class="cls-4" d="M375.17 299.28v78.52H390v-37.11c0-9.07 39-35.39 39-35.39 50.65 34.65 109.87 13.5 129.15 1.33 0 0 16.21 20.28 51.85 32.5v38.67h14.83v-78.52c0-24.21-14.64-54.68-47.68-59.68-8.45-25-40.05-33-57.58-30.69-45.84 6-61.5 9.32-93.93-6.27-6.63 17.22 0 28.55 0 28.55-13.64 2.43-15.33 4.43-35.6-.14 0 8.24.44 20.45 4 25.21-17.56 10.16-18.87 23.91-18.87 43.02z"/></g><g id="_Группа_14" data-name="&lt;Группа&gt;"><g id="_Группа_15" data-name="&lt;Группа&gt;"><path id="_Контур_28" data-name="&lt;Контур&gt;" class="cls-6" d="M390 406.93V371h-8c-8.84 0-14 7.75-11.52 17l3.55 13.45c2 7.66 9 13.8 16.33 14.86-.22-3.09-.36-6.22-.36-9.38z"/></g><g id="_Группа_16" data-name="&lt;Группа&gt;"><path id="_Контур_29" data-name="&lt;Контур&gt;" class="cls-4" d="M390 406.93V371h-8c-8.84 0-14 7.75-11.52 17l3.55 13.45c2 7.66 9 13.8 16.33 14.86-.22-3.09-.36-6.22-.36-9.38z"/></g></g><g id="_Группа_17" data-name="&lt;Группа&gt;"><g id="_Группа_18" data-name="&lt;Группа&gt;"><path id="_Контур_30" data-name="&lt;Контур&gt;" class="cls-6" d="M610 406.93V371h8c8.84 0 14 7.75 11.52 17l-3.55 13.45c-2 7.66-9 13.8-16.33 14.86.18-3.09.36-6.22.36-9.38z"/></g><g id="_Группа_19" data-name="&lt;Группа&gt;"><path id="_Контур_31" data-name="&lt;Контур&gt;" class="cls-4" d="M610 406.93V371h8c8.84 0 14 7.75 11.52 17l-3.55 13.45c-2 7.66-9 13.8-16.33 14.86.18-3.09.36-6.22.36-9.38z"/></g></g><g id="_Группа_20" data-name="&lt;Группа&gt;" style="mix-blend-mode:overlay" opacity=".3"><g id="_Группа_21" data-name="&lt;Группа&gt;"><path id="_Контур_32" data-name="&lt;Контур&gt;" class="cls-13" d="M442.1 273.46s36.94 4.07 50.67 30.76"/></g><g id="_Группа_22" data-name="&lt;Группа&gt;"><path id="_Контур_33" data-name="&lt;Контур&gt;" class="cls-13" d="M453.12 238.89s56.38 21.74 70.88 65.33"/></g><g id="_Группа_23" data-name="&lt;Группа&gt;"><path id="_Контур_34" data-name="&lt;Контур&gt;" class="cls-13" d="M509.49 242.83s30.41 19.94 32.44 52.88"/></g><path id="_Контур_35" data-name="&lt;Контур&gt;" class="cls-13" d="M568.43 290.22S595.34 286 607 309.37"/></g></g></g></g><g id="_Группа_24" data-name="&lt;Группа&gt;"><rect id="_Прямоугольник_5" data-name="&lt;Прямоугольник&gt;" x="323.13" y="616.14" width="353.75" height="213.83" rx="32" ry="32" fill="#cdc5c3"/><path id="_Контур_36" data-name="&lt;Контур&gt;" d="M644.87 616.14H355.13a32 32 0 0 0-32 32v12.33a32 32 0 0 1 32-32h289.74a32 32 0 0 1 32 32v-12.33a32 32 0 0 0-32-32z" fill="#fff7f5" opacity=".7"/><path id="_Контур_37" data-name="&lt;Контур&gt;" d="M323.13 788.11V798a32 32 0 0 0 32 32h289.74a32 32 0 0 0 32-32v-9.87z" fill="#afabaa"/><rect id="_Прямоугольник_6" data-name="&lt;Прямоугольник&gt;" class="cls-4" x="323.13" y="616.14" width="353.75" height="213.83" rx="32" ry="32"/></g><path id="_Контур_38" data-name="&lt;Контур&gt;" class="cls-9" d="M507.57 719.07c-3.62-8.81 1.91-15.62-2-19.33-3.38-3.22-10.75-1.14-15.16 2.05-6.29 4.55-7.47 12-7.67 13.4-1.66 12 7.93 25.62 19.13 26.11 7 .31 15.11-4.48 15.53-9.22.42-4.53-6.57-5.08-9.83-13.01z"/><path id="_Контур_39" data-name="&lt;Контур&gt;" class="cls-4" d="M292.92 829.97h424.87"/></g></g></svg>