<svg xmlns="http://www.w3.org/2000/svg" viewBox="0 0 1000 1000"><defs><style>.cls-1{isolation:isolate;}.cls-2{fill:#00c900;}.cls-3,.cls-5{fill:#df358d;opacity:0.31;}.cls-3,.cls-5,.cls-7{mix-blend-mode:multiply;}.cls-13,.cls-4,.cls-8,.cls-9{fill:none;stroke-linejoin:round;}.cls-13,.cls-4,.cls-9{stroke:#2a2a2a;}.cls-13,.cls-4,.cls-5,.cls-8,.cls-9{stroke-linecap:round;}.cls-4,.cls-5{stroke-width:10px;}.cls-5{stroke:#df358d;stroke-miterlimit:10;}.cls-6,.cls-7{fill:#f9a991;}.cls-7{opacity:0.26;}.cls-8{stroke:#fff;}.cls-8,.cls-9{stroke-width:8px;}.cls-10{fill:#2a2a2a;}.cls-11{fill:#fff;}.cls-12{opacity:0.3;mix-blend-mode:overlay;}.cls-13{stroke-width:6px;}.cls-14{fill:#cdc5c3;}.cls-15{fill:#fff7f5;opacity:0.7;}.cls-16{fill:#afabaa;}</style></defs><title>Artboard 1</title><g class="cls-1"><g id="Layer_1" data-name="Layer 1"><g id="_Группа_" data-name="&lt;Группа&gt;"><g id="_Группа_2" data-name="&lt;Группа&gt;"><ellipse id="_Контур_" data-name="&lt;Контур&gt;" class="cls-2" cx="500" cy="551.58" rx="95.34" ry="46.56"/><path id="_Контур_2" data-name="&lt;Контур&gt;" class="cls-3" d="M561.83,531.32c0,18-27.92,32.64-62.36,32.64s-62.36-14.61-62.36-32.64"/><path id="_Контур_3" data-name="&lt;Контур&gt;" class="cls-3" d="M500,528.93a119.26,119.26,0,0,0,55-13.37c-15.54-5.37-34.52-8.53-55-8.53s-39.47,3.16-55,8.53A119.26,119.26,0,0,0,500,528.93Z"/><ellipse id="_Контур_4" data-name="&lt;Контур&gt;" class="cls-4" cx="500" cy="551.58" rx="95.34" ry="46.56"/><path id="_Контур_5" data-name="&lt;Контур&gt;" class="cls-2" d="M639.7,687.94H360.3V627.2A66.72,66.72,0,0,1,405.66,564l12.63-4.27a255.28,255.28,0,0,1,163.41,0L594.34,564A66.72,66.72,0,0,1,639.7,627.2Z"/><path id="_Контур_6" data-name="&lt;Контур&gt;" class="cls-3" d="M594.34,564l-12.63-4.27a255.28,255.28,0,0,0-163.41,0L405.66,564A66.72,66.72,0,0,0,360.3,627.2v10.72a66.72,66.72,0,0,1,45.37-63.21l12.63-4.27a255.28,255.28,0,0,1,163.41,0l12.63,4.27a66.72,66.72,0,0,1,45.37,63.21V627.2A66.72,66.72,0,0,0,594.34,564Z"/><path id="_Контур_7" data-name="&lt;Контур&gt;" class="cls-4" d="M639.7,687.94H360.3V627.2A66.72,66.72,0,0,1,405.66,564l12.63-4.27a255.28,255.28,0,0,1,163.41,0L594.34,564A66.72,66.72,0,0,1,639.7,627.2Z"/><path id="_Контур_8" data-name="&lt;Контур&gt;" class="cls-5" d="M452.06,557.16v21.08c0,16,13.94,28.89,31.14,28.89H516.8c17.2,0,31.14-12.94,31.14-28.89V557.16"/><g id="_Группа_3" data-name="&lt;Группа&gt;"><path id="_Контур_9" data-name="&lt;Контур&gt;" class="cls-2" d="M441.32,529.77s10.21,7.46,10.21,18.39v21.08c0,16,13.94,28.89,31.14,28.89h33.59c17.2,0,31.14-12.94,31.14-28.89V548.16c0-10.92,10.21-18.39,10.21-18.39Z"/><path id="_Контур_10" data-name="&lt;Контур&gt;" class="cls-4" d="M441.85,529.77s10.21,7.46,10.21,18.39v21.08c0,16,13.94,28.89,31.14,28.89H516.8c17.2,0,31.14-12.94,31.14-28.89V548.16c0-10.92,10.21-18.39,10.21-18.39"/></g><path id="_Прямоугольник_" data-name="&lt;Прямоугольник&gt;" class="cls-6" d="M476,496.48h48a0,0,0,0,1,0,0v53.44a24,24,0,0,1-24,24h0a24,24,0,0,1-24-24V496.48A0,0,0,0,1,476,496.48Z"/><path id="_Контур_11" data-name="&lt;Контур&gt;" class="cls-7" d="M476,526.52a120.57,120.57,0,0,0,48,0v-28H476Z"/><path id="_Прямоугольник_2" data-name="&lt;Прямоугольник&gt;" class="cls-4" d="M476,496.48h48a0,0,0,0,1,0,0v53.44a24,24,0,0,1-24,24h0a24,24,0,0,1-24-24V496.48A0,0,0,0,1,476,496.48Z"/><g id="_Группа_4" data-name="&lt;Группа&gt;"><line id="_Контур_12" data-name="&lt;Контур&gt;" class="cls-8" x1="470.5" y1="580.18" x2="470.5" y2="620.82"/><line id="_Контур_13" data-name="&lt;Контур&gt;" class="cls-8" x1="529.5" y1="580.18" x2="529.5" y2="637.92"/></g><line id="_Контур_14" data-name="&lt;Контур&gt;" class="cls-4" x1="500" y1="602.03" x2="500" y2="687.94"/></g><g id="_Группа_5" data-name="&lt;Группа&gt;"><g id="_Группа_6" data-name="&lt;Группа&gt;"><g id="_Группа_7" data-name="&lt;Группа&gt;"><path id="_Прямоугольник_3" data-name="&lt;Прямоугольник&gt;" class="cls-6" d="M390,295.28H610a0,0,0,0,1,0,0V406.93a110,110,0,0,1-110,110h0a110,110,0,0,1-110-110V295.28A0,0,0,0,1,390,295.28Z"/><path id="_Контур_15" data-name="&lt;Контур&gt;" class="cls-7" d="M610,391.8V295.28H390V391.8l.4-41.17c1.69-6,24.22-22.5,38.8-29.31,18.65,11.24,39.65,16.93,62.52,16.93,26,0,49.5-7.45,64.58-15.11,7.37,6.95,25.78,20.41,50.67,22.56Z"/><path id="_Контур_16" data-name="&lt;Контур&gt;" class="cls-7" d="M500,502.79h0a110,110,0,0,1-110-110v14.14a110,110,0,0,0,110,110h0a110,110,0,0,0,110-110V392.79A110,110,0,0,1,500,502.79Z"/><path id="_Контур_17" data-name="&lt;Контур&gt;" class="cls-7" d="M516.46,414.46c0,4.28-5.44,7.74-16.46,7.74s-16.46-3.47-16.46-7.74c0,0,11.81,1.85,15.93,1.85S516.46,414.46,516.46,414.46Z"/><path id="_Контур_18" data-name="&lt;Контур&gt;" class="cls-9" d="M516.46,416.46c0,4.28-5.44,7.74-16.46,7.74s-16.46-3.47-16.46-7.74"/><path id="_Прямоугольник_4" data-name="&lt;Прямоугольник&gt;" class="cls-4" d="M390,295.28H610a0,0,0,0,1,0,0V406.93a110,110,0,0,1-110,110h0a110,110,0,0,1-110-110V295.28A0,0,0,0,1,390,295.28Z"/><g id="_Группа_8" data-name="&lt;Группа&gt;"><g id="_Группа_9" data-name="&lt;Группа&gt;"><path id="_Контур_19" data-name="&lt;Контур&gt;" class="cls-9" d="M458.06,364.49a47.47,47.47,0,0,0-32.43,5.05"/><circle id="_Контур_20" data-name="&lt;Контур&gt;" class="cls-10" cx="451.1" cy="387.97" r="9" transform="translate(-54.36 74.08) rotate(-8.86)"/></g><g id="_Группа_10" data-name="&lt;Группа&gt;"><path id="_Контур_21" data-name="&lt;Контур&gt;" class="cls-9" d="M541.94,364.49a47.47,47.47,0,0,1,32.43,5.05"/><circle id="_Контур_22" data-name="&lt;Контур&gt;" class="cls-10" cx="548.9" cy="387.97" r="9" transform="translate(81.05 870.59) rotate(-81.14)"/></g></g><g id="_Группа_11" data-name="&lt;Группа&gt;"><path id="_Контур_23" data-name="&lt;Контур&gt;" class="cls-11" d="M529.5,445c0,15.08-13.21,27.3-29.5,27.3S470.5,460.1,470.5,445Z"/><path id="_Контур_24" data-name="&lt;Контур&gt;" class="cls-9" d="M529.5,445c0,15.08-13.21,27.3-29.5,27.3S470.5,460.1,470.5,445Z"/><line id="_Контур_25" data-name="&lt;Контур&gt;" class="cls-9" x1="492.76" y1="487.47" x2="507.24" y2="487.47"/></g></g><g id="_Группа_12" data-name="&lt;Группа&gt;"><path id="_Контур_26" data-name="&lt;Контур&gt;" class="cls-10" d="M375.17,299.28V377.8H390V340.69c0-9.07,39-35.39,39-35.39,50.65,34.65,109.87,13.5,129.15,1.33,0,0,16.21,20.28,51.85,32.5V377.8h14.83V299.28c0-24.21-14.64-54.68-47.68-59.68-8.45-25-40.05-33-57.58-30.69-45.84,6-61.5,9.32-93.93-6.27-6.63,17.22,0,28.55,0,28.55-13.64,2.43-15.33,4.43-35.6-.14,0,8.24.44,20.45,4,25.21C376.48,266.42,375.17,280.17,375.17,299.28Z"/></g><g id="_Группа_13" data-name="&lt;Группа&gt;"><path id="_Контур_27" data-name="&lt;Контур&gt;" class="cls-4" d="M375.17,299.28V377.8H390V340.69c0-9.07,39-35.39,39-35.39,50.65,34.65,109.87,13.5,129.15,1.33,0,0,16.21,20.28,51.85,32.5V377.8h14.83V299.28c0-24.21-14.64-54.68-47.68-59.68-8.45-25-40.05-33-57.58-30.69-45.84,6-61.5,9.32-93.93-6.27-6.63,17.22,0,28.55,0,28.55-13.64,2.43-15.33,4.43-35.6-.14,0,8.24.44,20.45,4,25.21C376.48,266.42,375.17,280.17,375.17,299.28Z"/></g><g id="_Группа_14" data-name="&lt;Группа&gt;"><g id="_Группа_15" data-name="&lt;Группа&gt;"><path id="_Контур_28" data-name="&lt;Контур&gt;" class="cls-6" d="M390,406.93V371h-8c-8.84,0-14,7.75-11.52,17l3.55,13.45c2,7.66,9,13.8,16.33,14.86C390.14,413.22,390,410.09,390,406.93Z"/></g><g id="_Группа_16" data-name="&lt;Группа&gt;"><path id="_Контур_29" data-name="&lt;Контур&gt;" class="cls-4" d="M390,406.93V371h-8c-8.84,0-14,7.75-11.52,17l3.55,13.45c2,7.66,9,13.8,16.33,14.86C390.14,413.22,390,410.09,390,406.93Z"/></g></g><g id="_Группа_17" data-name="&lt;Группа&gt;"><g id="_Группа_18" data-name="&lt;Группа&gt;"><path id="_Контур_30" data-name="&lt;Контур&gt;" class="cls-6" d="M610,406.93V371h8c8.84,0,14,7.75,11.52,17l-3.55,13.45c-2,7.66-9,13.8-16.33,14.86C609.82,413.22,610,410.09,610,406.93Z"/></g><g id="_Группа_19" data-name="&lt;Группа&gt;"><path id="_Контур_31" data-name="&lt;Контур&gt;" class="cls-4" d="M610,406.93V371h8c8.84,0,14,7.75,11.52,17l-3.55,13.45c-2,7.66-9,13.8-16.33,14.86C609.82,413.22,610,410.09,610,406.93Z"/></g></g><g id="_Группа_20" data-name="&lt;Группа&gt;" class="cls-12"><g id="_Группа_21" data-name="&lt;Группа&gt;"><path id="_Контур_32" data-name="&lt;Контур&gt;" class="cls-13" d="M442.1,273.46s36.94,4.07,50.67,30.76"/></g><g id="_Группа_22" data-name="&lt;Группа&gt;"><path id="_Контур_33" data-name="&lt;Контур&gt;" class="cls-13" d="M453.12,238.89s56.38,21.74,70.88,65.33"/></g><g id="_Группа_23" data-name="&lt;Группа&gt;"><path id="_Контур_34" data-name="&lt;Контур&gt;" class="cls-13" d="M509.49,242.83s30.41,19.94,32.44,52.88"/></g><path id="_Контур_35" data-name="&lt;Контур&gt;" class="cls-13" d="M568.43,290.22S595.34,286,607,309.37"/></g></g></g></g><g id="_Группа_24" data-name="&lt;Группа&gt;"><rect id="_Прямоугольник_5" data-name="&lt;Прямоугольник&gt;" class="cls-14" x="323.13" y="616.14" width="353.75" height="213.83" rx="32" ry="32"/><path id="_Контур_36" data-name="&lt;Контур&gt;" class="cls-15" d="M644.87,616.14H355.13a32,32,0,0,0-32,32v12.33a32,32,0,0,1,32-32H644.87a32,32,0,0,1,32,32V648.14A32,32,0,0,0,644.87,616.14Z"/><path id="_Контур_37" data-name="&lt;Контур&gt;" class="cls-16" d="M323.13,788.11V798a32,32,0,0,0,32,32H644.87a32,32,0,0,0,32-32v-9.87Z"/><rect id="_Прямоугольник_6" data-name="&lt;Прямоугольник&gt;" class="cls-4" x="323.13" y="616.14" width="353.75" height="213.83" rx="32" ry="32"/></g><path id="_Контур_38" data-name="&lt;Контур&gt;" class="cls-9" d="M507.57,719.07c-3.62-8.81,1.91-15.62-2-19.33-3.38-3.22-10.75-1.14-15.16,2.05-6.29,4.55-7.47,12-7.67,13.4-1.66,12,7.93,25.62,19.13,26.11,7,.31,15.11-4.48,15.53-9.22C517.82,727.55,510.83,727,507.57,719.07Z"/><line id="_Контур_39" data-name="&lt;Контур&gt;" class="cls-4" x1="292.92" y1="829.97" x2="717.79" y2="829.97"/></g></g></svg>