<svg id="svg3476" xmlns="http://www.w3.org/2000/svg" viewBox="0 0 295 342"><defs><style>.cls-3{fill:#ebebeb}</style></defs><g id="layer1"><g id="g3013"><path id="polygon2989" fill="#264de4" d="M290.19 6.9l-26.44 296.16L144.92 336 26.41 303.1 0 6.9h290.19z"/><path id="polygon2991" fill="#2965f1" d="M241.12 284.2l22.59-253.09H145.09v279.71l96.03-26.62z"/><path id="polygon2993" class="cls-3" d="M60.54 140.97l3.26 36.33h81.29v-36.33H60.54z"/><path id="polygon2995" class="cls-3" d="M145.09 67.44H54l3.3 36.33h87.79V67.44z"/><path id="polygon2997" class="cls-3" d="M145.09 273.12v-37.8l-.16.05-40.46-10.93-2.58-28.97H65.42l5.09 57.04 74.42 20.66.16-.05z"/><path id="polygon3005" fill="#fff" d="M189.7 177.3l-4.21 47.12-40.52 10.93v37.8l74.47-20.64.55-6.14 8.54-95.64.88-9.76 6.56-73.53h-91v36.33h51.19l-3.31 37.2h-47.88v36.33h44.73z"/></g></g><path id="_Фрагмент_" data-name="&lt;Фрагмент&gt;" fill="none" d="M0 0h295v342H0z"/></svg>