<svg id="svg3476" xmlns="http://www.w3.org/2000/svg" viewBox="0 0 295 342"><defs><style>.cls-1{fill:#264de4;}.cls-2{fill:#2965f1;}.cls-3{fill:#ebebeb;}.cls-4{fill:#fff;}.cls-5{fill:none;}</style></defs><title>CSS3_logo_and_wordmark</title><g id="layer1"><g id="g3013"><polygon id="polygon2989" class="cls-1" points="290.19 6.9 263.75 303.06 144.92 336 26.41 303.1 0 6.9 290.19 6.9"/><polygon id="polygon2991" class="cls-2" points="241.12 284.2 263.71 31.11 145.09 31.11 145.09 310.82 241.12 284.2"/><polygon id="polygon2993" class="cls-3" points="60.54 140.97 63.8 177.3 145.09 177.3 145.09 140.97 60.54 140.97"/><polygon id="polygon2995" class="cls-3" points="145.09 67.44 144.97 67.44 54 67.44 57.3 103.77 145.09 103.77 145.09 67.44"/><polygon id="polygon2997" class="cls-3" points="145.09 273.12 145.09 235.32 144.93 235.37 104.47 224.44 101.89 195.47 82.23 195.47 65.42 195.47 70.51 252.51 144.93 273.17 145.09 273.12"/><polygon id="polygon3005" class="cls-4" points="189.7 177.3 185.49 224.42 144.97 235.35 144.97 273.15 219.44 252.51 219.99 246.37 228.53 150.73 229.41 140.97 235.97 67.44 144.97 67.44 144.97 103.77 196.16 103.77 192.85 140.97 144.97 140.97 144.97 177.3 189.7 177.3"/></g></g><rect id="_Фрагмент_" data-name="&lt;Фрагмент&gt;" class="cls-5" width="295" height="342"/></svg>