<svg id="Слой_1" data-name="Слой 1" xmlns="http://www.w3.org/2000/svg" viewBox="0 0 443.9 434.18"><defs><style>.cls-1{fill:#21609b;}.cls-2{fill:none;}</style></defs><title>jquery</title><path class="cls-1" d="M433.73,368.21l-2,5.08c-33.42,65.09-92.65,105-177.13,106.78-39.49.81-77.12-9.32-101.7-20.34-53-23.84-97.67-68-122-115.26-35-67.7-41.26-161.88,31.42-232.22,1.12,0-8.82,15.25-7.69,15.25l-2,6.51c-52.37,164,109,304.5,265.85,288.43,37.7-3.86,85.77-24.51,115.26-54.24" transform="translate(0 -45.95)"/><path class="cls-1" d="M338.81,300.41c39.46.27,80.68-18.18,105.1-44.07-21.36,54.21-83.19,89.05-166.11,78C208.36,325,142.22,255.15,135.41,185.15c-5-50.95,12.77-81.36,42-118.25-10.17,19.29-14,34.17-14.92,43.66-11.12,110.21,88,189.27,176.28,189.85" transform="translate(0 -45.95)"/><path class="cls-1" d="M439.94,163.52c-6.13,14.07-41.45,40.64-57.05,44-61.77,13.16-101.32-16.13-122-49.46-3.08-5-8.77-18.57-9.79-22-8-27.32-4.34-68.65,19.63-90-7.22,20.34-8.28,44-4.47,59.33,2.3,9.29,9.32,25.5,16.34,35.7,12.77,18.58,20.88,23.09,37.29,33,7.39,4.44,15.32,8,18.75,9,15.56,4.58,48.41,16.65,101.37-19.39" transform="translate(0 -45.95)"/><rect id="_Фрагмент_" data-name="&lt;Фрагмент&gt;" class="cls-2" width="443.9" height="434.18"/></svg>