<svg id="Layer_2" data-name="Layer 2" xmlns="http://www.w3.org/2000/svg" viewBox="0 0 671 599.3"><defs><style>.cls-1{fill:#61dafb;}.cls-2{fill:none;}</style></defs><title>React-icon</title><path class="cls-1" d="M668.47,297.72c0-44.28-55.46-86.25-140.48-112.27,19.62-86.66,10.9-155.6-27.52-177.68C491.61,2.59,481.25.14,469.94.14V30.52c6.27,0,11.31,1.23,15.53,3.54C504,44.69,512,85.16,505.78,137.21c-1.5,12.81-4,26.3-6.95,40.06a660.32,660.32,0,0,0-86.52-14.85,664.66,664.66,0,0,0-56.68-68.13C400,53,441.74,30.38,470.08,30.38V0h0C432.61,0,383.56,26.71,334,73,284.37,27,235.31.55,197.84.55V30.93c28.2,0,70,22.48,114.45,63.5a643.55,643.55,0,0,0-56.27,68,636.28,636.28,0,0,0-86.66,15c-3.13-13.63-5.45-26.84-7.09-39.51-6.4-52,1.5-92.52,19.89-103.28,4.09-2.45,9.4-3.54,15.67-3.54V.68h0C186.4.68,176,3.13,167,8.31c-38.29,22.07-46.87,90.88-27.11,177.27C55.18,211.74,0,253.57,0,297.72S55.46,384,140.48,410c-19.62,86.66-10.9,155.6,27.52,177.68,8.86,5.18,19.21,7.63,30.66,7.63,37.47,0,86.52-26.71,136.12-73,49.6,46.05,98.65,72.49,136.12,72.49,11.45,0,21.8-2.45,30.79-7.63,38.29-22.07,46.87-90.88,27.11-177.27C613.29,383.83,668.47,341.86,668.47,297.72Zm-177.4-90.88c-5,17.58-11.31,35.7-18.39,53.82-5.59-10.9-11.45-21.8-17.85-32.7s-12.94-21.53-19.62-31.88C454.55,198.93,473.22,202.48,491.06,206.84Zm-62.4,145.11c-10.63,18.39-21.53,35.84-32.84,52-20.3,1.77-40.88,2.73-61.59,2.73s-41.15-1-61.31-2.59q-17-24.32-33-51.78-15.53-26.77-28.34-54.23c8.45-18.26,18-36.52,28.2-54.37,10.63-18.39,21.53-35.84,32.84-52,20.3-1.77,40.88-2.73,61.59-2.73s41.15,1,61.31,2.59q17,24.32,33,51.78,15.53,26.77,28.34,54.23C448.28,315.84,438.88,334.1,428.66,351.95Zm44-17.71c7.36,18.26,13.63,36.52,18.8,54.23-17.85,4.36-36.65,8-56.14,10.9,6.68-10.49,13.35-21.26,19.62-32.29S467.08,345.14,472.67,334.23ZM334.51,479.62A561.73,561.73,0,0,1,296.63,436c12.26.55,24.8,1,37.47,1s25.48-.27,37.88-1A531.84,531.84,0,0,1,334.51,479.62ZM233.13,399.36c-19.35-2.86-38-6.4-55.86-10.76,5-17.58,11.31-35.7,18.39-53.82,5.59,10.9,11.45,21.8,17.85,32.7S226.46,389,233.13,399.36ZM333.83,115.82a561.73,561.73,0,0,1,37.88,43.6c-12.26-.55-24.8-1-37.47-1s-25.48.27-37.88,1A531.84,531.84,0,0,1,333.83,115.82ZM233,196.07c-6.68,10.49-13.35,21.26-19.62,32.29s-12.13,21.8-17.71,32.7c-7.36-18.26-13.63-36.52-18.8-54.23C194.71,202.61,213.51,198.93,233,196.07ZM109.69,366.66c-48.23-20.57-79.44-47.55-79.44-68.95s31.2-48.51,79.44-68.95c11.72-5,24.53-9.54,37.74-13.76a654.42,654.42,0,0,0,30.66,83,645.19,645.19,0,0,0-30.25,82.57C134.35,376.34,121.54,371.7,109.69,366.66ZM183,561.37c-18.53-10.63-26.57-51.1-20.3-103.15,1.5-12.81,4-26.3,6.95-40.06A660.32,660.32,0,0,0,256.16,433a664.66,664.66,0,0,0,56.68,68.13c-44.42,41.29-86.11,63.9-114.45,63.9C192.26,564.92,187.08,563.69,183,561.37Zm323.2-103.83c6.4,52-1.5,92.52-19.89,103.28-4.09,2.45-9.4,3.54-15.67,3.54-28.2,0-70-22.48-114.45-63.5a643.55,643.55,0,0,0,56.27-68,636.28,636.28,0,0,0,86.66-15A381.46,381.46,0,0,1,506.19,457.55Zm52.46-90.88c-11.72,5-24.53,9.54-37.74,13.76a654.42,654.42,0,0,0-30.66-83,645.19,645.19,0,0,0,30.25-82.57c13.49,4.22,26.3,8.86,38.29,13.9,48.23,20.57,79.44,47.55,79.44,68.95S606.88,346.23,558.65,366.66Z"/><path class="cls-1" d="M197.71.55Z"/><circle class="cls-1" cx="334.1" cy="297.72" r="62.27"/><path class="cls-1" d="M469.81.14Z"/><rect id="_Фрагмент_" data-name="&lt;Фрагмент&gt;" class="cls-2" y="0.3" width="671" height="599"/></svg>