<svg id="Ebene_1" data-name="Ebene 1" xmlns="http://www.w3.org/2000/svg" viewBox="0 0 199.99 95.24"><defs><style>.cls-1{fill:#005a9c;}.cls-2{fill:none;}</style></defs><title>w3c</title><path class="cls-1" d="M52.35,24.41l17,57.64,17-57.64h46v5.73L114.92,60a24.13,24.13,0,0,1,13.8,10.64,34.27,34.27,0,0,1,4.68,18.12q0,12.87-6.84,21.63a21.46,21.46,0,0,1-17.71,8.77,21.23,21.23,0,0,1-14.26-5.2,30.61,30.61,0,0,1-9-14.09l9.58-4a21.83,21.83,0,0,0,5.56,8.47,11.76,11.76,0,0,0,8.13,3.1q4.91,0,8.3-5.49a24.66,24.66,0,0,0,3.39-13.22q0-8.54-3.62-13.21Q112.69,70,103.69,70H99V64.4l16.37-28.3H95.63L94.51,38l-24,81.09H69.31L51.77,60.41,34.23,119.1H33.06L5,24.41H17.28l17,57.64L45.7,43.24,40.08,24.41H52.35Z" transform="translate(-5.01 -23.88)"/><path d="M196,24.41a8.54,8.54,0,0,0-6.21,2.53,9.15,9.15,0,0,0-2.71,6.41,9,9,0,0,0,8.92,9,9.13,9.13,0,0,0,6.36-2.66A8.6,8.6,0,0,0,205,33.36a8.94,8.94,0,0,0-2.58-6.29A8.76,8.76,0,0,0,196,24.41Zm7.78,9a7.43,7.43,0,0,1-2.26,5.39A7.86,7.86,0,0,1,196,41.12a7.63,7.63,0,0,1-5.42-2.31,7.74,7.74,0,0,1-2.29-5.44,8,8,0,0,1,2.36-5.57A7.47,7.47,0,0,1,196,25.59a7.74,7.74,0,0,1,7.76,7.85Zm-7.53-5.32h-3.83V38.26h1.91V33.93h1.89l2.06,4.32h2.14l-2.26-4.62a2.65,2.65,0,0,0,2.31-2.73c0-1.84-1.39-2.79-4.22-2.79Zm-.35,1.24c1.79,0,2.61.5,2.61,1.74s-.82,1.62-2.56,1.62h-1.62V29.36h1.57Z" transform="translate(-5.01 -23.88)"/><path d="M181,23.88,183,36l-7,13.47s-2.7-5.72-7.19-8.87c-3.78-2.66-6.25-3.24-10.1-2.45-4.95,1-10.56,6.94-13,14.23-2.93,8.73-3,13-3.06,16.83a38.26,38.26,0,0,0,.82,9.9,44.12,44.12,0,0,1-4.23-19.49c0-8.27,1.33-15.76,5.15-23.16,3.37-6.5,8.37-10.41,12.81-10.87s8.21,1.74,11,4.13,5.92,8,5.92,8L181,23.88Z" transform="translate(-5.01 -23.88)"/><path d="M181.84,92.29a60,60,0,0,1-5,7.71c-1.94,2.14-5.41,5.92-9.69,7.81s-6.53,2.24-10.76,1.84a21.15,21.15,0,0,1-9.54-3.88,37.14,37.14,0,0,1-6.89-6.84c-2-2.81-5.1-8.42-5.1-8.42s1.73,5.62,2.82,8a51.8,51.8,0,0,0,5.27,9.23c2.54,3.41,7.48,9.28,15,10.61a19.07,19.07,0,0,0,13.93-2.86,38.36,38.36,0,0,0,5.66-4.89,42.82,42.82,0,0,0,4.38-5.77c.68-1.06,1.79-3.21,1.79-3.21l-1.79-9.33Z" transform="translate(-5.01 -23.88)"/><rect id="_Фрагмент_" data-name="&lt;Фрагмент&gt;" class="cls-2" width="199.99" height="95.24"/></svg>